<svg xmlns="http://www.w3.org/2000/svg" viewBox="0 0 529.55 393.53"><defs><style>.a{fill:#2fac66;}</style></defs><path class="a" d="M181.26,260.12c1.57-.14,91.62-.11,92.71,0,0,.22.07.46.08.7,0,.42,0,.84,0,1.26q0,31.54,0,63.08a7.15,7.15,0,0,0,.62,3.05c1.64,3.7,3.21,7.43,4.84,11.14a2.58,2.58,0,0,1,.1,1.93,83.21,83.21,0,0,1-3.81,10.31c-.79,1.78-1.54,3.57-2.31,5.35-.14.34-.32.66-.5,1a2.58,2.58,0,0,1-.71-1.22l-10.46-24.15c-.31-.74-.63-1.47-1-2.2a3.76,3.76,0,0,1-.36-1.71c0-1.52,0-3,0-4.56,0-.38,0-.75-.05-1.21l-.76-.09H195a5.19,5.19,0,0,0-.11.78c0,.93,0,1.86,0,2.79a5.64,5.64,0,0,1-.51,2.56q-5.62,12.94-11.2,25.9-10.71,24.8-21.44,49.58a5.83,5.83,0,0,0-.52,2.57c0,1.14,0,2.28,0,3.42,0,.29,0,.57.06.93a7.4,7.4,0,0,0,.75.1c.38,0,.76,0,1.14,0h41.86a5.86,5.86,0,0,1,.14.9q0,5.78,0,11.53a6.63,6.63,0,0,1-.1.87,3.44,3.44,0,0,1-1.41.12H162.78c-.46,0-.91,0-1.34,0a10.47,10.47,0,0,0,0,3.76c1.57.14,3.16,0,4.76.06s3.29,0,4.94,0h34c0,.42.1.74.1,1.07a112.64,112.64,0,0,1-.15,12.25c-1.29.18-49.18.26-56.62.1-.24,0-.48,0-.8-.07,0-.47-.06-.88-.06-1.29V425.37c0-6.42,0-12.83,0-19.25a6.71,6.71,0,0,1,.55-2.69q16.23-37.5,32.43-75a8,8,0,0,0,.7-3.41q0-31.61,0-63.2C181.23,261.27,181.25,260.73,181.26,260.12ZM195,291c0,.35-.07.68-.07,1-.11,9,0,16.3.15,17.38.3,0,.63.06,1,.06,15.82.16,63.15.07,64.33-.12a1.06,1.06,0,0,0,.12-.34q0-8.73,0-17.47a1.88,1.88,0,0,0-.1-.47,1.42,1.42,0,0,0-.39-.12H195.53A3.46,3.46,0,0,0,195,291Zm65.47-13.78a18.66,18.66,0,0,0-.07-3.66l-1.54,0H196.55a8.81,8.81,0,0,0-.89,0,6.38,6.38,0,0,0-.76.13c0,.65,0,1.24,0,1.83a7.81,7.81,0,0,0,.07,1.74,2.62,2.62,0,0,0,.41.1H260A2.7,2.7,0,0,0,260.45,277.17Z" transform="translate(-32.86 -173.56)"/><path class="a" d="M209.32,442.18a5.12,5.12,0,0,1-.09-.66q0-36.4,0-72.82a1.5,1.5,0,0,1,.09-.32l.12-.1a.28.28,0,0,1,.12,0l223.72,0c.21,0,.42,0,.63.05,0,0,.06.05.16.14a1.81,1.81,0,0,1,.07.41v73.24c-.3.05-.53.11-.77.13s-.76,0-1.14,0H209.32Zm211.16-13.42V383.28c0-.3,0-.59,0-.89a7,7,0,0,0-.12-.77H224.71c-.38,0-.76,0-1.14,0a6.21,6.21,0,0,0-.75.15V383q0,22.72,0,45.46a.2.2,0,0,0,0,.11l.15.16c.14,0,.34.05.54.05Z" transform="translate(-32.86 -173.56)"/><path class="a" d="M434.15,364.17a118.1,118.1,0,0,1-12.67.16,8.37,8.37,0,0,1-.92-.09c0-.3-.07-.54-.08-.78,0-.42,0-.84,0-1.27V258c0-.54,0-1.07,0-1.52l-.18-.18a.25.25,0,0,0-.12,0l-20.14,0h-.94a5,5,0,0,0-.14.76c0,.38,0,.76,0,1.14v43.38c-.76.95-35.43,35-36.25,35.61-.28-.07-.23-.32-.26-.51-.48-3-1-6.07-1.4-9.12a44.07,44.07,0,0,1-.38-6.19,2.13,2.13,0,0,1,.69-1.66c2.28-2.19,4.53-4.42,6.79-6.64q8.08-8,16.17-15.89c.33-.32.7-.6,1-.87v-88a4.23,4.23,0,0,1,.64-.11H434a6.21,6.21,0,0,1,.15.75c0,.38,0,.76,0,1.14V364.17ZM399,242.75c.53,0,1,0,1.36,0q9.38,0,18.74,0a2.15,2.15,0,0,0,1.41-.2,26.66,26.66,0,0,0-.09-3.66c-.47,0-.89-.05-1.3-.05H400.34a2.05,2.05,0,0,0-1.38.21Zm21.48-21.09c-.59,0-1.05,0-1.5,0H403.1c-1.09,0-2.19,0-3.29,0a5.41,5.41,0,0,0-.89.14,23.36,23.36,0,0,0,.12,3.64l1.55,0h17c.72,0,1.44,0,2.16,0a4.07,4.07,0,0,0,.72-.13Z" transform="translate(-32.86 -173.56)"/><path class="a" d="M357.19,307.75c0,.88-.06,1.63-.11,2.39-.12,1.64-.29,3.28-.37,4.92a73.41,73.41,0,0,0,0,7.85c.15,2.4.35,4.79.67,7.17.24,1.76.54,3.5.86,5.25A77.37,77.37,0,0,0,363,351.15c.89,2.14,1.94,4.21,3,6.28s2.08,3.86,3.12,5.79c.15.29.27.59.38.84-.16.32-.39.26-.59.27H275.45a6.39,6.39,0,0,1-1.71-.1c.15-.34.24-.61.37-.86.66-1.22,1.31-2.46,2-3.67a79.7,79.7,0,0,0,7-16.35,82.47,82.47,0,0,0,2.57-11,79.6,79.6,0,0,0,1-13.36c0-3-.21-6-.46-9-.06-.75-.07-1.5-.1-2.31.31-.05.55-.09.79-.11s.5,0,.76,0h67.88A6.15,6.15,0,0,1,357.19,307.75Zm-62.13,43c1.24.19,48.46.29,52.66.13a4.74,4.74,0,0,0,.55-.12c-.08-.3-.12-.53-.2-.76a88.63,88.63,0,0,1-3-10.84,1.06,1.06,0,0,0-.44-.84H300.08c-.29,0-.59,0-.88,0a6.35,6.35,0,0,0-.77.12A106.87,106.87,0,0,1,295.06,350.76Zm47.85-29.67h-41c-.25,0-.51,0-.76,0s-.48.07-.77.11c-.05,1.22-.09,2.39-.14,3.51.09.07.12.12.16.12a2.74,2.74,0,0,0,.5.07l41.91,0a.25.25,0,0,0,.12,0s.06,0,.17-.17A22.88,22.88,0,0,0,342.91,321.09Z" transform="translate(-32.86 -173.56)"/><path class="a" d="M390.55,534.1c-.34,0-.54.1-.75.11-2.35.1-14.62,0-15.63-.1a4.72,4.72,0,0,1-.12-.69c0-.38,0-.76,0-1.14v-35.2c0-.45,0-.9,0-1.35-.48,0-.51.34-.65.56q-3.6,5.73-7.18,11.48l-10.86,17.39-.67,1a27.49,27.49,0,0,1-5.31.07l-.79-1.2L330.7,496.37a4.4,4.4,0,0,0-.75-1.09l-.17.09a.28.28,0,0,0,0,.12.62.62,0,0,0,0,.13,2.09,2.09,0,0,0,0,.25v37.49c0,.08,0,.17,0,.25a.62.62,0,0,1,0,.13.25.25,0,0,1,0,.12s0,.08-.05.14c-.28.32-.69.21-1.05.21H316a3.15,3.15,0,0,1-1.23-.11c-.05-.1-.13-.17-.13-.25q0-34.5,0-69c0-.25,0-.49.06-.81a41,41,0,0,1,4.56-.08c1.56,0,3.12,0,4.69,0h4.63c2.06,3.07,4,6.21,6.05,9.31l6.05,9.35,6.06,9.36,6.09,9.4a3.93,3.93,0,0,0,.85-1.14l13.83-21.8,8.39-13.26c.25-.39.51-.77.78-1.18h13.74a7,7,0,0,1,.13.73c0,.38,0,.76,0,1.14V534.1Z" transform="translate(-32.86 -173.56)"/><path class="a" d="M151.66,509.56c-2.16-.12-7.51-.08-8.49.07A2.44,2.44,0,0,0,143,511q0,10.75,0,21.53v1.42c-.39.4-.79.29-1.15.29h-14.7c-.41,0-.83,0-1.29-.05,0-.31-.1-.55-.11-.79s0-.68,0-1V464.07a7,7,0,0,1,.79-.11c.25,0,.5,0,.76,0h46.86a24.84,24.84,0,0,1,4,.24c5.39.89,9,3.83,10.51,9.13a15.4,15.4,0,0,1,.64,4c0,1.85.05,3.71.05,5.57,0,4.3,0,8.61,0,12.91a16.56,16.56,0,0,1-1.33,6.4,10.69,10.69,0,0,1-7.32,6.46,23.73,23.73,0,0,1-5.39.65,8,8,0,0,0-1.56.1,1.26,1.26,0,0,0,0,.22.27.27,0,0,0,0,.12l.08.09.09.1.17.18.18.18.18.18,23.18,22.85.18.18.09.09.08.09a.39.39,0,0,1,.08.1.41.41,0,0,1,.07.11s0,.07,0,.2a2.22,2.22,0,0,1-.41.11c-.34,0-.68,0-1,0H175c-1.73,0-1.33.13-2.37-1.05q-8.37-9.4-16.71-18.85Zm-8.55-16.2a2.46,2.46,0,0,0,1.27.16h23.94c.93,0,1.86-.1,2.78-.19a1.17,1.17,0,0,0,1.12-1,9.26,9.26,0,0,0,.16-1.38c0-2.78,0-5.57,0-8.36a5.62,5.62,0,0,0-.08-1c-.19-1-.5-1.3-1.5-1.4-.8-.08-1.6-.13-2.41-.13H144.59c-.34,0-.68,0-1,0a2.85,2.85,0,0,0-.55.16c0,4.19,0,8.36,0,12.54A4.39,4.39,0,0,0,143.11,493.36Z" transform="translate(-32.86 -173.56)"/><path class="a" d="M493.77,464h12c4.43,4.43,8.87,9,13.35,13.53s9,9.14,13.53,13.69,9,9,13.48,13.49c.31,0,.29-.23.28-.38-.35-8.32-.09-16.63-.16-24.95,0-4.64,0-9.28,0-13.93a3.44,3.44,0,0,1,.12-1.41c.22,0,.42-.07.62-.08,3.58-.11,14.19,0,15.39.11,0,.22.07.46.08.7s0,.67,0,1v68.3a4.64,4.64,0,0,1-.78.14c-3.51,0-7,0-10.52,0a1.67,1.67,0,0,1-1.32-.6c-.64-.67-1.31-1.32-2-2L511,494.33l-1.08-1.05a3,3,0,0,0-.14.56l.06,24.44c0,4.81,0,9.63,0,14.44a3.24,3.24,0,0,1-.12,1.35,1.53,1.53,0,0,1-.39.12l-15.07,0a3,3,0,0,1-.42-.07,1.14,1.14,0,0,1-.14-.16.36.36,0,0,1,0-.11c0-.3,0-.59,0-.89q0-34.32,0-68.63A1.57,1.57,0,0,1,493.77,464Z" transform="translate(-32.86 -173.56)"/><path class="a" d="M50.67,534.2H33.21a1.17,1.17,0,0,1-.35-.13,1.93,1.93,0,0,1,.09-.38Q49.24,499,65.56,464.29a2.23,2.23,0,0,1,.28-.34H81l33.22,69.73a1.92,1.92,0,0,1,.07.41,2.25,2.25,0,0,1-.48.12c-1.89.11-18,0-19-.12l-6.42-14-.17-.07a.28.28,0,0,0-.12,0l-.51,0H57.49A3.88,3.88,0,0,0,57,520c-.15.29-.33.61-.48.95q-2.64,6-5.26,11.91C51.1,533.27,50.9,533.69,50.67,534.2Zm22.22-49.11a3.53,3.53,0,0,0-.21.34q-4,8.73-7.93,17.48c0,.06,0,.16,0,.24,1.09.15,11.19.22,15.4.1.19,0,.39-.05.59-.07C80.49,502.14,73.69,486.55,72.89,485.09Z" transform="translate(-32.86 -173.56)"/><path class="a" d="M433.73,464H449L460,487.28l11.16,23.41,11.15,23.38a4.91,4.91,0,0,1-.69.14c-.42,0-.85,0-1.27,0H464.3c-.46,0-.92,0-1.44,0-1.18-2.35-2.2-4.76-3.3-7.12s-2.13-4.68-3.22-7.07c-.33,0-.66-.08-1-.08H426c-.33,0-.67,0-1.06.05-2.08,4.72-4.16,9.42-6.25,14.15a7.13,7.13,0,0,1-.89.1H401.67c-.28,0-.56-.05-.93-.08.09-.26.13-.46.21-.65C402.8,529.23,433.1,465,433.73,464Zm15.12,39.22c-2.68-6.14-5.3-12.1-8-18.16-.17.28-.3.45-.39.63l-7.68,16.91a3.76,3.76,0,0,0-.15.62Z" transform="translate(-32.86 -173.56)"/><path class="a" d="M196.16,480.41c-.21-1.2-.21-15.18,0-16.32a.29.29,0,0,1,.08-.07l.12,0,65.87,0,1,0a.47.47,0,0,1,.22.09s.07.05.09.09a.25.25,0,0,1,0,.11l0,15.45c0,.17,0,.33,0,.46-.3.33-.66.23-1,.23H240c-.46,0-.91,0-1.44,0,0,.31-.06.55-.06.79s0,.76,0,1.14v50.15c0,.49,0,1,0,1.5a2.8,2.8,0,0,1-1.41.17H221.17a5.77,5.77,0,0,1-.14-.79c0-.38,0-.76,0-1.14V480.57a6.21,6.21,0,0,0-.75-.15c-.63,0-1.26,0-1.89,0H196.16Z" transform="translate(-32.86 -173.56)"/><path class="a" d="M514.86,173.66c.19,1,.22,12,0,13.4-.22,0-.46.06-.69.06-.85,0-1.69-.07-2.54-.08a6.16,6.16,0,0,0-5.44,2.89l-.7,1a19.76,19.76,0,0,1-7.34,6.64,20.08,20.08,0,0,1-6.46,2.1A18.3,18.3,0,0,1,489,200a21.32,21.32,0,0,1-7.41-1.4,19.66,19.66,0,0,1-9.33-7.28c-.37-.51-.73-1-1.07-1.56a6,6,0,0,0-4.42-2.64,6.19,6.19,0,0,0-3.23.4,5.64,5.64,0,0,0-2.61,1.92c-.4.55-.81,1.08-1.18,1.65A21.33,21.33,0,0,1,455,196a17.36,17.36,0,0,1-5.12,2.71,19.73,19.73,0,0,1-7.56,1.24,25.45,25.45,0,0,1-3.38-.47,18.93,18.93,0,0,1-10.2-5.47,28.69,28.69,0,0,1-3.36-4.27,6.09,6.09,0,0,0-2.71-2.21A6.24,6.24,0,0,0,415.6,189a5.71,5.71,0,0,0-1.76,3.94c0,.47,0,.93,0,1.4,0,2.87,0,5.74,0,8.61,0,.41,0,.82-.06,1.3-1.53.17-3,.06-4.46.08s-3,0-4.56,0-2.94,0-4.48,0a7.24,7.24,0,0,1-.1-.8c0-3.37,0-6.75,0-10.13a21,21,0,0,1,1.57-7.76,18.57,18.57,0,0,1,1.65-3,19.52,19.52,0,0,1,7.63-6.85,20.06,20.06,0,0,1,8.64-2.18,19.21,19.21,0,0,1,9.86,2.28,20.11,20.11,0,0,1,7,6.07c.42.59.82,1.18,1.23,1.77a6.45,6.45,0,0,0,10.41.23c.43-.57.85-1.16,1.25-1.75a19.93,19.93,0,0,1,19.51-8.35,21.58,21.58,0,0,1,5.44,1.57,19.56,19.56,0,0,1,7.67,6.23c.5.69,1,1.38,1.45,2.08a6.48,6.48,0,0,0,10.58,0l.92-1.36a19.77,19.77,0,0,1,10.79-7.94,18.31,18.31,0,0,1,6-.86c.8,0,1.6,0,2.4,0C514.39,173.59,514.64,173.64,514.86,173.66Z" transform="translate(-32.86 -173.56)"/><path class="a" d="M234.16,243c-.59-.67-1.16-1.35-1.78-2a6.44,6.44,0,0,0-10.46,1.51,5.56,5.56,0,0,0-.62,2.56c0,1.05,0,2.11,0,3.17,0,2.19,0,4.39,0,6.58,0,.42,0,.83,0,1.3a3.38,3.38,0,0,1-.64.12H208.19a3.5,3.5,0,0,1-.44-.07,3.23,3.23,0,0,1-.13-.69c0-3.42-.09-6.84,0-10.26a19.75,19.75,0,0,1,8.88-16.34,19.35,19.35,0,0,1,6.58-2.83,19.89,19.89,0,0,1,14.43,2.05c.84.48,1.62,1.06,2.42,1.6.31.21.61.44.94.68l.82-.64A19.56,19.56,0,0,1,252,225.58a21.92,21.92,0,0,1,6.42.33,20.6,20.6,0,0,1,9.21,4.78,33.91,33.91,0,0,1,2.53,2.82c.56.68,1,1.45,1.53,2.17A6.38,6.38,0,0,0,279,238a6.25,6.25,0,0,0,3.43-2.65,25,25,0,0,1,1.53-2.17,19.76,19.76,0,0,1,9.94-6.84,33.22,33.22,0,0,1,5.2-1l1.12-.13c.37.23.27.6.28.92,0,1.85,0,3.71,0,5.57v5.44c0,.42,0,.84,0,1.29a5.91,5.91,0,0,1-.71.31c-.56.17-1.13.33-1.71.47a5.63,5.63,0,0,0-3,1.93,14.23,14.23,0,0,0-1.27,1.73,19.8,19.8,0,0,1-9.86,7.79,19.07,19.07,0,0,1-4.3,1,16.48,16.48,0,0,1-2.89.22,22.92,22.92,0,0,1-6.57-1.22,20.7,20.7,0,0,1-5.41-3,17.47,17.47,0,0,1-4.38-4.69,20.89,20.89,0,0,0-1.44-1.92,6.4,6.4,0,0,0-8.48-1,6.06,6.06,0,0,0-2.67,4.66c0,.42,0,.85,0,1.27,0,2.91,0,5.82,0,8.74,0,.41,0,.83,0,1.28a2.08,2.08,0,0,1-.51.14H234.58a1.47,1.47,0,0,1-.27-.06c-.33-.28-.23-.68-.23-1,0-2.28,0-4.56,0-6.84C234.09,246.53,234.13,244.8,234.16,243Z" transform="translate(-32.86 -173.56)"/><path class="a" d="M291.73,464v69.52a3.44,3.44,0,0,1-.07.51,3.28,3.28,0,0,1-1.38.15H276.22l-1.82,0a7,7,0,0,1-.13-.78c0-.38,0-.76,0-1.14V464.1a3,3,0,0,1,.63-.14h16.22A5.81,5.81,0,0,1,291.73,464Z" transform="translate(-32.86 -173.56)"/><path class="a" d="M330.56,303.73a3,3,0,0,1-.49.09H317.23a4.37,4.37,0,0,1-.14-.77c0-3.55,0-7.09,0-10.64a19,19,0,0,1,2.79-9.74,20.7,20.7,0,0,1,4-4.71A19.75,19.75,0,0,1,334,273.3a19.47,19.47,0,0,1,12.62,2.12,18.92,18.92,0,0,1,7.17,6.45c.32.5.66,1,1,1.46a6.49,6.49,0,0,0,10,.57,7.51,7.51,0,0,0,.81-1.13,22,22,0,0,1,4.2-4.88,19.2,19.2,0,0,1,9.35-4.45c1.42-.23,2.83-.43,4.25-.65.07.16.17.28.17.39V286a4.55,4.55,0,0,1-1.93.64,6.55,6.55,0,0,0-4.22,3,23,23,0,0,1-4.81,5.51,16.21,16.21,0,0,1-3,1.91,19.46,19.46,0,0,1-9.21,2.38A20.22,20.22,0,0,1,356,299a26.56,26.56,0,0,1-3.26-1,18.42,18.42,0,0,1-4.05-2.07,19.38,19.38,0,0,1-2.54-2.08,17.74,17.74,0,0,1-2.57-3c-.37-.56-.78-1.1-1.16-1.66a6.52,6.52,0,0,0-6.91-2.58,6.3,6.3,0,0,0-4.68,5.4,12.78,12.78,0,0,0-.08,1.64v8.74A2.82,2.82,0,0,1,330.56,303.73Z" transform="translate(-32.86 -173.56)"/><path class="a" d="M403,277.44a1.72,1.72,0,0,1,.4-.12h13a5,5,0,0,1,.18.85c0,1.44,0,2.87,0,4.3q0,3.48,0,7c0,.41,0,.83-.05,1.29a3,3,0,0,1-.64.13H403.58c-.17,0-.33-.05-.55-.08a2.73,2.73,0,0,1-.14-.6q0-6.06,0-12.14A3.83,3.83,0,0,1,403,277.44Z" transform="translate(-32.86 -173.56)"/><path class="a" d="M403,273.41c-.18-1-.24-11.59-.07-13.24a2.15,2.15,0,0,1,.57-.13q6.14,0,12.27,0a5.11,5.11,0,0,1,.59.06,114.5,114.5,0,0,1,.15,12.3c0,.33-.05.66-.08,1-1.11.14-9.54.21-12.84.1A5.11,5.11,0,0,1,403,273.41Z" transform="translate(-32.86 -173.56)"/><path class="a" d="M403,294.81c1.22-.2,6.88-.26,12.59-.14.29,0,.57.06.85.09a1.78,1.78,0,0,1,.12.41q0,6.13,0,12.27a2.77,2.77,0,0,1-.1.56,4.42,4.42,0,0,1-.6.1H403.68A5.72,5.72,0,0,1,403,308a3.37,3.37,0,0,1-.13-.63c0-4,0-8.1,0-12.15A3.5,3.5,0,0,1,403,294.81Z" transform="translate(-32.86 -173.56)"/><path class="a" d="M271.51,552.46l-1.05,3.61c-.28,1-.54,1.95-.82,2.92a3.85,3.85,0,0,1-.31.82.8.8,0,0,1-1.37,0,7.72,7.72,0,0,1-.32-1l-1.74-5.68c-.09-.31-.21-.61-.35-1a1.26,1.26,0,0,0-.19.93v8.35c0,.3,0,.59,0,.89,0,.84-.2,1-1.08,1-.21,0-.43,0-.64,0a.57.57,0,0,1-.57-.56,8.64,8.64,0,0,1,0-.88c0-6,0-12,0-18,0-1.29,0-1.49,1.54-1.4a3.25,3.25,0,0,1,.56.14c.71,1.73,1.15,3.58,1.74,5.37s1.09,3.54,1.63,5.28c.36.06.38-.17.44-.36.85-3,1.7-5.91,2.56-8.87.14-.48.31-1,.45-1.37a2.78,2.78,0,0,1,1.69-.16c.39,0,.57.26.61.68s0,.59,0,.89q0,8.85,0,17.72a8.62,8.62,0,0,1,0,.88.58.58,0,0,1-.65.62c-1.49,0-1.82.19-1.8-1.55,0-2.66,0-5.31,0-8,0-.42,0-.83,0-1.25Z" transform="translate(-32.86 -173.56)"/><path class="a" d="M388.79,552.09a4.92,4.92,0,0,0-.52,1.28l-1.53,5.35c-.09.32-.18.65-.3,1a.73.73,0,0,1-.68.48.75.75,0,0,1-.74-.39,6,6,0,0,1-.3-.84L383,553.26c-.11-.35-.23-.7-.37-1.15a1,1,0,0,0-.24.89v9.24a3,3,0,0,1-.06.5c-.11.44-.45.56-1.4.51-.55,0-.73-.18-.78-.64a8.63,8.63,0,0,1,0-.88V543.88c0-.41,0-.83.06-1.21a2.12,2.12,0,0,1,1.42-.27.81.81,0,0,1,.82.64c.26.85.53,1.69.79,2.54l2.07,6.76c.1.32.22.62.39,1.09a7.05,7.05,0,0,0,.37-.77c.84-2.87,1.67-5.75,2.51-8.62.07-.24.16-.48.21-.73.16-.85.54-.91,1.25-.92,1.15,0,1.3.12,1.3,1.3q0,9.1,0,18.23c0,1.27-.11,1.36-1.38,1.33h-.13c-.68,0-.86-.21-.91-.93,0-.29,0-.59,0-.88q0-4,0-8C388.86,553.1,388.83,552.75,388.79,552.09Z" transform="translate(-32.86 -173.56)"/><path class="a" d="M155.94,546.34a20.51,20.51,0,0,0-5-.06l-.07.11a.22.22,0,0,0,0,.11l0,12.15c0,.2,0,.41,0,.67a10,10,0,0,0,2.5.12c.8,0,1.59,0,2.4,0a2.53,2.53,0,0,0,.21-1.51c0-.55,0-1.1,0-1.65a4.64,4.64,0,0,0-.11-1.52,5.13,5.13,0,0,0-1.51-.1l-1.41,0a3.06,3.06,0,0,1-.24-.75c0-.72,0-1.43,0-2.15a.61.61,0,0,1,.66-.63c1.64,0,3.28-.05,5,0a4,4,0,0,1,.23.88c0,2.78.15,5.57-.14,8.35a6.09,6.09,0,0,1-.3,1.47,2,2,0,0,1-2,1.43c-1.82,0-3.63,0-5.44,0a2,2,0,0,1-2.12-1.62,9.09,9.09,0,0,1-.28-1.87c-.06-1.22-.07-2.45-.07-3.67,0-3.29,0-6.58.06-9.87a9.48,9.48,0,0,1,.28-2.12,2,2,0,0,1,2.08-1.68c1.85,0,3.71,0,5.56,0a2,2,0,0,1,2,1.49,10.61,10.61,0,0,1,.38,3.88.89.89,0,0,1-.39.6,8.54,8.54,0,0,1-1.37.64.59.59,0,0,1-.76-.47,6.4,6.4,0,0,1-.06-.88C156,547.22,156,546.77,155.94,546.34Z" transform="translate(-32.86 -173.56)"/><path class="a" d="M69.74,548.23c-.58.28-1.1.56-1.64.78a.61.61,0,0,1-.82-.54,8.72,8.72,0,0,1,0-.89c0-.41,0-.82,0-1.29a5,5,0,0,0-1.66-.13H63.78a4.64,4.64,0,0,0-1.68.14,3.5,3.5,0,0,0-.11.58c0,4,0,7.93,0,11.9a3.55,3.55,0,0,0,.06.47,19.06,19.06,0,0,0,5.09.1,3.7,3.7,0,0,0,.12-1.45c0-.5,0-1,0-1.52V554.8a8.16,8.16,0,0,0-.88-.13l-2.17,0a3.72,3.72,0,0,1-.23-.76c0-.68,0-1.35,0-2s.22-.74.79-.74c1.44,0,2.87,0,4.31,0,.5,0,.66.19.7.7,0,.21,0,.42,0,.63,0,2.28,0,4.56,0,6.84a7.88,7.88,0,0,1-.31,2.37,2,2,0,0,1-2.14,1.61c-1.77,0-3.55,0-5.32,0a2.17,2.17,0,0,1-2.2-1.7,18.7,18.7,0,0,1-.34-2.88c0-3.92,0-7.85,0-11.77a17.18,17.18,0,0,1,.19-2.14,4.3,4.3,0,0,1,.35-1.21,1.88,1.88,0,0,1,1.56-1.13c.25,0,.51-.05.76-.05h5.19a2,2,0,0,1,1.94,1.54,5,5,0,0,1,.27,1.36C69.76,546.23,69.74,547.15,69.74,548.23Z" transform="translate(-32.86 -173.56)"/><path class="a" d="M348.76,552.8c0,2.06,0,4.13,0,6.19a13.52,13.52,0,0,1-.24,2.38,2,2,0,0,1-2.28,1.88h-5.57a2,2,0,0,1-2.2-1.69,9.94,9.94,0,0,1-.31-2.37q0-6.37,0-12.77a13.46,13.46,0,0,1,.23-2,2.22,2.22,0,0,1,2.34-2c1.86,0,3.71,0,5.57,0a2.06,2.06,0,0,1,2.23,1.82,9.6,9.6,0,0,1,.25,2.51Zm-2.54,6.56a6.66,6.66,0,0,0,.07-.67c0-3.92,0-7.83,0-11.75a4,4,0,0,0-.16-.78h-1.8c-.63,0-1.27,0-1.9,0a3.21,3.21,0,0,0-1.78.22v4.28c0,1.48,0,3,0,4.42a37.19,37.19,0,0,0,.08,4.23A35.33,35.33,0,0,0,346.22,559.36Z" transform="translate(-32.86 -173.56)"/><path class="a" d="M209.65,553c0,2.11,0,4.22,0,6.32a12,12,0,0,1-.26,2.25,2,2,0,0,1-2.17,1.72h-5.56a2.15,2.15,0,0,1-2.37-2A12.22,12.22,0,0,1,199,559q0-6.19,0-12.39a13.87,13.87,0,0,1,.23-2.13,3.67,3.67,0,0,1,.37-1.07,1.76,1.76,0,0,1,1.4-1,2.73,2.73,0,0,1,.5-.06c1.89,0,3.79,0,5.69,0a2.85,2.85,0,0,1,1.2.31,1.93,1.93,0,0,1,.94,1.29,8.67,8.67,0,0,1,.29,2.38C209.64,548.58,209.65,550.77,209.65,553Zm-2.58,6.44a3.15,3.15,0,0,0,.1-.48c0-4,0-8.08,0-12.12a2.42,2.42,0,0,0-.15-.56,26,26,0,0,0-5.39.08,5.51,5.51,0,0,0-.08.71c0,3.87,0,7.75,0,11.62a5.55,5.55,0,0,0,.1.75Z" transform="translate(-32.86 -173.56)"/><path class="a" d="M245.89,555.72c.36.78.71,1.54,1.07,2.29.63,1.29,1.26,2.58,1.88,3.87.09.19.19.38.27.57a.57.57,0,0,1-.44.77l-.12,0h-2.32c-.21-.43-.41-.79-.58-1.17l-2.3-5.34c-.16-.38-.35-.75-.5-1.07a1.67,1.67,0,0,0-1.32,0,2.31,2.31,0,0,0-.15,1.24c0,1.69,0,3.38,0,5.07,0,1.2-.1,1.27-1.32,1.26l-.63,0a.57.57,0,0,1-.51-.49,3.8,3.8,0,0,1-.06-.75V543.62a8,8,0,0,1,.12-1,4.43,4.43,0,0,1,.76-.19c2.07,0,4.14,0,6.2,0a2,2,0,0,1,2.12,1.63,8.9,8.9,0,0,1,.31,2.12c0,1.9,0,3.8,0,5.7a9.52,9.52,0,0,1-.22,1.75,2.16,2.16,0,0,1-1.88,1.94A1.77,1.77,0,0,0,245.89,555.72Zm-.25-3.87a18.84,18.84,0,0,0,.2-4.4,2,2,0,0,0-.3-1.32,17.82,17.82,0,0,0-4,0,24.07,24.07,0,0,0,0,5.69C242.86,551.91,244.19,551.87,245.64,551.85Z" transform="translate(-32.86 -173.56)"/><path class="a" d="M193.77,555.63c0,.11-.06.15-.05.18.37.8.74,1.6,1.12,2.4.56,1.18,1.13,2.35,1.7,3.53a7.27,7.27,0,0,1,.32.69.56.56,0,0,1-.41.77c-.71,0-1.43,0-2.14,0a.78.78,0,0,1-.5-.34,5.23,5.23,0,0,1-.38-.79l-2.3-5.34c-.16-.38-.35-.75-.51-1.08a1.54,1.54,0,0,0-1.3,0,2.51,2.51,0,0,0-.14,1.24c0,1.69,0,3.37,0,5.06,0,1.2-.09,1.27-1.32,1.26a4.13,4.13,0,0,1-.5,0c-.5,0-.7-.22-.74-.69a8.62,8.62,0,0,1,0-.88V544c0-1.54,0-1.56,1.54-1.57h5.18c1.72,0,2.36.57,2.66,2.23,0,.09,0,.17,0,.25a45.89,45.89,0,0,1,0,8,4.65,4.65,0,0,1-.22,1.11,2,2,0,0,1-1.64,1.57C194,555.53,193.89,555.6,193.77,555.63Zm-.38-9.47a11.79,11.79,0,0,0-4.19.09c0,.89,0,1.8,0,2.72a10.21,10.21,0,0,0,.16,2.9c.71,0,1.38,0,2.05,0a7.59,7.59,0,0,0,2-.11,4.82,4.82,0,0,0,.18-.87c0-1.3,0-2.6,0-3.9A4.37,4.37,0,0,0,193.39,546.16Z" transform="translate(-32.86 -173.56)"/><path class="a" d="M504.27,555.73c.12.29.21.56.33.82.79,1.63,1.59,3.25,2.38,4.89a9.59,9.59,0,0,1,.45,1,.54.54,0,0,1-.45.74c-.67,0-1.35,0-2,0a.67.67,0,0,1-.6-.4c-.13-.26-.24-.53-.36-.8-.73-1.7-1.46-3.41-2.2-5.11-.18-.42-.38-.84-.56-1.24a1.89,1.89,0,0,0-1.44,0c0,.43,0,.85,0,1.26v4.69c0,.29,0,.59,0,.88a.69.69,0,0,1-.7.74h-.25c-1.5,0-1.57,0-1.57-1.52,0-6,0-11.89,0-17.84,0-1.47,0-1.49,1.46-1.5,1.78,0,3.55,0,5.32,0,1.47,0,2.19.6,2.52,2.11a8.6,8.6,0,0,1,.15,1.76c0,1.81,0,3.63,0,5.44a9.82,9.82,0,0,1-.18,1.88,2.17,2.17,0,0,1-1.86,2A1.86,1.86,0,0,0,504.27,555.73Zm-4.41-9.67a23.87,23.87,0,0,0,.07,5.73,10.59,10.59,0,0,0,4.08-.14,16.58,16.58,0,0,0-.12-5.55A29.94,29.94,0,0,0,499.86,546.06Z" transform="translate(-32.86 -173.56)"/><path class="a" d="M120.08,555.61h-1.39c0,.47,0,.89,0,1.3,0,1.61,0,3.21,0,4.82a8.62,8.62,0,0,1,0,.88.63.63,0,0,1-.67.63c-1.83,0-1.9.16-1.89-1.7,0-5.78,0-11.56,0-17.35,0-.29,0-.59,0-.88,0-.7.21-.9.94-.91q3.17,0,6.33,0a1.89,1.89,0,0,1,1.87,1.44,5.32,5.32,0,0,1,.29,1.48c0,2.44,0,4.89,0,7.34a5.7,5.7,0,0,1-.17,1,2.2,2.2,0,0,1-1.81,1.88,1.77,1.77,0,0,0-.38.2c.13.32.23.63.37.93.79,1.63,1.6,3.25,2.39,4.89a6.21,6.21,0,0,1,.37.93.57.57,0,0,1-.49.74h-.13c-2.15.22-2.21.19-3.08-1.85Zm2.68-9.51a8.59,8.59,0,0,0-2-.07,5.4,5.4,0,0,0-2.14.17c0,1.87-.06,3.71,0,5.61a11.18,11.18,0,0,0,2.07.05,5.51,5.51,0,0,0,2.13-.15,7.77,7.77,0,0,0,.09-.91c0-1.43,0-2.86,0-4.3C122.94,546.39,122.85,546.28,122.76,546.1Z" transform="translate(-32.86 -173.56)"/><path class="a" d="M449.11,552.74c0,2.44,0,4.89,0,7.33a5.67,5.67,0,0,1-.3,1.73,1.89,1.89,0,0,1-2,1.44q-2.91,0-5.82,0a1.88,1.88,0,0,1-2.05-1.51,11,11,0,0,1-.39-2.74c0-4.13,0-8.26,0-12.39a17.07,17.07,0,0,1,.19-2,3,3,0,0,1,.25-.84,2,2,0,0,1,1.7-1.32,6.45,6.45,0,0,1,.76,0h4.81a8.65,8.65,0,0,1,.88.05,1.81,1.81,0,0,1,1.6,1.25,5.71,5.71,0,0,1,.34,1.47,19.38,19.38,0,0,1,.09,2c0,1.85,0,3.7,0,5.56Zm-2.52,6.7a2.62,2.62,0,0,0,.14-.49q0-6.12,0-12.26a1.33,1.33,0,0,0-.1-.34,20.15,20.15,0,0,0-4.9-.18,4.25,4.25,0,0,0-.59.15,5,5,0,0,0-.07.56v11.88a4.32,4.32,0,0,0,.13.67C443,559.46,444.75,559.45,446.59,559.44Z" transform="translate(-32.86 -173.56)"/><path class="a" d="M558,554.67c-.31,0-.64-.06-1-.06h-3.3a2.14,2.14,0,0,1-2.37-1.81,6.58,6.58,0,0,1-.14-.75,34.1,34.1,0,0,1,0-7.07,5.39,5.39,0,0,1,.25-1.11,2,2,0,0,1,1.87-1.45l.25,0c1.44,0,2.87,0,4.31,0a2,2,0,0,1,2.25,1.78,22.09,22.09,0,0,1,.33,3.26,1.19,1.19,0,0,1-.35.77,4.78,4.78,0,0,1-1,.73.59.59,0,0,1-.93-.48c0-.29,0-.59,0-.88s0-.83,0-1.22a15.18,15.18,0,0,0-4.48-.09,6.4,6.4,0,0,0-.13,2.1c0,.67,0,1.35,0,2.08a4.52,4.52,0,0,0,.73.15c1.23,0,2.45,0,3.68,0a2.23,2.23,0,0,1,2.43,2.06,13.7,13.7,0,0,1,.21,2,34.62,34.62,0,0,1-.16,6.19,5.06,5.06,0,0,1-.18.86,2,2,0,0,1-2.07,1.51h-4.94a2,2,0,0,1-2-1.32,2.64,2.64,0,0,1-.2-.6,15.48,15.48,0,0,1-.23-4,4.47,4.47,0,0,1,1.82-1,.79.79,0,0,1,.61.78c0,.38,0,.76,0,1.14s0,.74,0,1.2c1.6.13,3.14,0,4.65.06A15.46,15.46,0,0,0,558,554.67Z" transform="translate(-32.86 -173.56)"/><path class="a" d="M482,548c-.45.34-.88.68-1.34,1a.57.57,0,0,1-.86-.43,8.36,8.36,0,0,1,0-1c0-.42,0-.83-.06-1.21a15.12,15.12,0,0,0-4.57,0,15.06,15.06,0,0,0,0,4.19c.22,0,.46.07.7.07,1.23,0,2.45,0,3.68,0a2,2,0,0,1,2.28,1.74,4.73,4.73,0,0,1,.21,1.11q0,3.48,0,6.95a5.92,5.92,0,0,1-.26,1.37,2.11,2.11,0,0,1-2,1.48c-1.69,0-3.38,0-5.06,0a1.94,1.94,0,0,1-2-1.45,5.33,5.33,0,0,1-.29-1.36c0-1,0-2.1,0-3.14a4.2,4.2,0,0,1,1.5-.95.54.54,0,0,1,.79.52c0,.34,0,.68,0,1v1.39a3.5,3.5,0,0,0,1.67.18c.5,0,1,0,1.52,0h1.64a2.94,2.94,0,0,0,.18-1.53c0-.55,0-1.1,0-1.64s0-1,0-1.57a6.27,6.27,0,0,0-.77-.1c-1.23,0-2.45,0-3.67,0a2.15,2.15,0,0,1-2.38-2,12.75,12.75,0,0,1-.24-2.13q0-2,0-4a12.75,12.75,0,0,1,.24-2.13,2.11,2.11,0,0,1,2.27-1.94c1.43,0,2.87,0,4.3,0a2.14,2.14,0,0,1,2.3,1.91A13,13,0,0,1,482,548Z" transform="translate(-32.86 -173.56)"/><path class="a" d="M81.43,550.46V561.7c0,.33,0,.67,0,1a.58.58,0,0,1-.49.51,1.06,1.06,0,0,1-.25,0c-1.42,0-1.6.09-1.6-1.48,0-6,0-11.9,0-17.85,0-.42,0-.83.06-1.29a3.32,3.32,0,0,1,.63-.21c1-.07,1.13,0,1.55.92,1.13,2.41,2.24,4.82,3.36,7.22.53,1.15,1,2.3,1.59,3.45.08.17.19.33.36.62a1.68,1.68,0,0,0,.2-1.06v-9.5a2.42,2.42,0,0,1,.23-1.49,2.7,2.7,0,0,1,1.59-.14c.39,0,.56.26.59.69,0,.26,0,.51,0,.76v17.85a6.62,6.62,0,0,1,0,.89.63.63,0,0,1-.66.62c-.82,0-1,0-1.45-.89-1.62-3.57-3.26-7.12-4.89-10.69A2.58,2.58,0,0,0,81.43,550.46Z" transform="translate(-32.86 -173.56)"/><path class="a" d="M143.1,563.18l-5.7-12.4c-.38.06-.31.31-.31.5,0,.92,0,1.85,0,2.78v7.47c0,.34,0,.68,0,1a.68.68,0,0,1-.74.7,6.82,6.82,0,0,1-1,0,.61.61,0,0,1-.63-.65,8.81,8.81,0,0,1,0-.89q0-8.87,0-17.73c0-1.61.16-1.73,1.84-1.41.7,1.29,1.28,2.69,1.92,4.06s1.22,2.68,1.86,4,1.2,2.75,1.93,4c.14,0,.19,0,.21-.07s0-.07,0-.12a2,2,0,0,0,0-.25V543.33s0-.08,0-.12a2.28,2.28,0,0,1,0-.26.53.53,0,0,1,0-.12s0-.08.06-.17a2.53,2.53,0,0,1,2.08-.13c.05.29.14.56.16.84,0,.55,0,1.1,0,1.65v16.46c0,.38,0,.76,0,1.14s-.23.58-.66.62h-.38Z" transform="translate(-32.86 -173.56)"/><path class="a" d="M460.34,554.57a1.92,1.92,0,0,0,.08-1q0-4.44,0-8.86c0-.3,0-.6,0-.89,0-1.39.51-1.76,1.89-1.42a.58.58,0,0,1,.48.52,6.4,6.4,0,0,1,.05.88v18c0,.13,0,.26,0,.38a1,1,0,0,1-1.52,1,.82.82,0,0,1-.35-.34c-.17-.29-.32-.6-.46-.9q-2.29-5-4.58-10c-.17-.38-.36-.76-.53-1.12-.28,0-.29.18-.3.34,0,.34,0,.68,0,1v9.37c0,.34,0,.68,0,1s-.28.64-.75.68h-.26c-1.32,0-1.44,0-1.44-1.39q0-9,0-18c0-.12,0-.25,0-.38,0-.37-.06-.79.38-1a1.47,1.47,0,0,1,1.34,0,1.61,1.61,0,0,1,.5.71c.79,1.68,1.56,3.36,2.34,5,.87,1.88,1.73,3.76,2.61,5.62C459.91,554.14,459.9,554.52,460.34,554.57Z" transform="translate(-32.86 -173.56)"/><path class="a" d="M53.45,554.6a2.23,2.23,0,0,0,.17-1.2c0-2.95,0-5.91,0-8.86,0-.3,0-.6,0-.89,0-1.09.2-1.26,1.25-1.25a2.09,2.09,0,0,1,.75.09.74.74,0,0,1,.4.43,4.72,4.72,0,0,1,.06,1v18.36c0,.39,0,.8-.47.93a1.19,1.19,0,0,1-1.52-.52c-.2-.38-.37-.77-.54-1.15q-2.3-5-4.58-10c-.13-.29-.29-.57-.45-.87-.35.21-.23.49-.23.71q0,4.88,0,9.75c0,.3,0,.59,0,.89,0,1.17-.11,1.26-1.34,1.24h-.38c-.43,0-.62-.2-.67-.61a8.63,8.63,0,0,1,0-.88q0-8.94,0-17.86c0-.41,0-.83.06-1.28a2.88,2.88,0,0,1,.64-.2c1-.07,1.13,0,1.55.93q1.95,4.18,3.88,8.37c.34.73.68,1.45,1,2.18A3.94,3.94,0,0,0,53.45,554.6Z" transform="translate(-32.86 -173.56)"/><path class="a" d="M324.4,546a3.76,3.76,0,0,0-1.8,0,3.42,3.42,0,0,0,.06,2.32c1,2,2,4.07,3.08,6.18a1.48,1.48,0,0,0,.49-.72c.32-.74.63-1.48,1-2.19a.57.57,0,0,1,1.08,0,6.58,6.58,0,0,1,.64,1.5,1.67,1.67,0,0,1-.15,1c-.48,1.17-1,2.32-1.49,3.49.66,1.34,1.32,2.65,2,4,.11.23.23.45.33.68.27.63.07,1-.58,1s-1.17,0-1.68,0c-.71-.66-.8-1.58-1.47-2.27-.22.44-.4.8-.59,1.16a1.82,1.82,0,0,1-1.81,1.12c-.88,0-1.77,0-2.66,0a2.1,2.1,0,0,1-2.18-1.72,8.6,8.6,0,0,1-.26-1.75c0-1.3,0-2.61,0-3.92a5.25,5.25,0,0,1,.91-3c.37-.57.73-1.14,1.12-1.69a1.23,1.23,0,0,0,.22-1.18,12.17,12.17,0,0,1-.21-5.5,3.4,3.4,0,0,1,.37-1.07,1.64,1.64,0,0,1,1.38-1,23.25,23.25,0,0,1,2.64,0,1.58,1.58,0,0,1,1.44,1.08,6.79,6.79,0,0,1,.42,1.71c.07.83,0,1.68.05,2.52a.79.79,0,0,1-.52.79c-.27.12-.53.26-.81.36a.62.62,0,0,1-.88-.58c0-.34,0-.68,0-1S324.42,546.5,324.4,546Zm-3.8,13.53a13.38,13.38,0,0,0,3,0c.29-.61.55-1.18.79-1.68-1.17-2.6-1.74-3.62-2.41-4.28-.42.7-.84,1.37-1.23,2.06a1.22,1.22,0,0,0-.17.59C320.6,557.29,320.6,558.34,320.6,559.53Z" transform="translate(-32.86 -173.56)"/><path class="a" d="M291.81,550.69v1.25q0,4.93,0,9.87c0,1.41-.12,1.52-1.52,1.44-.64,0-.8-.2-.83-.85,0-.25,0-.5,0-.76V544.06c0-.34,0-.68,0-1a.61.61,0,0,1,.65-.63,4.42,4.42,0,0,1,.63,0,.79.79,0,0,1,.71.44c.13.27.26.53.38.8l4.74,10.2.36.76c.47-.11.3-.43.3-.63q0-5,0-10a2.72,2.72,0,0,1,.19-1.41,2.68,2.68,0,0,1,1.68-.12.53.53,0,0,1,.47.52c0,.3,0,.59,0,.89V562.2c.08,1.08-.49,1.16-1.39,1-.23-.05-.47-.35-.6-.59-.38-.75-.7-1.53-1.05-2.29q-2-4.42-4.06-8.85c-.13-.29-.3-.57-.45-.85Z" transform="translate(-32.86 -173.56)"/><path class="a" d="M228.09,559.35a19.21,19.21,0,0,0,4.65-.07c0-.43,0-.89,0-1.34q0-6.71,0-13.41c0-.22,0-.43,0-.64,0-.45-.14-1,.29-1.29a2.3,2.3,0,0,1,1.84-.11.5.5,0,0,1,.31.35,5.55,5.55,0,0,1,.08,1q0,7.21,0,14.43c0,.71,0,1.43-.09,2.14a6.19,6.19,0,0,1-.31,1.48,1.86,1.86,0,0,1-1.8,1.35c-1.77,0-3.55,0-5.32,0a1.89,1.89,0,0,1-1.79-1.19,4.68,4.68,0,0,1-.36-1.33c-.1-1-.18-2-.18-3,0-4.55,0-9.11,0-13.66,0-1.62.18-1.67,1.77-1.63a4.48,4.48,0,0,1,.67.14,8.39,8.39,0,0,1,.18.84c0,.33,0,.67,0,1v13.54C228.05,558.38,228.08,558.84,228.09,559.35Z" transform="translate(-32.86 -173.56)"/><path class="a" d="M215.68,559.37c1.41.16,2.82,0,4.3.08,0-.41.06-.7.07-1v-2.78a4.78,4.78,0,0,1,0-.76.55.55,0,0,1,.75-.44c.57.26,1.12.57,1.72.88a43.19,43.19,0,0,1-.11,5.35,5.59,5.59,0,0,1-.37,1.33,1.83,1.83,0,0,1-1.78,1.19c-1.64,0-3.29,0-4.94,0a2,2,0,0,1-1.92-1.36,6.9,6.9,0,0,1-.41-2.61q0-6.4,0-12.79a11.86,11.86,0,0,1,.19-1.88,4,4,0,0,1,.34-1.08,1.85,1.85,0,0,1,1.47-1.07,4.48,4.48,0,0,1,.63-.06c1.44,0,2.87,0,4.31,0a2.11,2.11,0,0,1,2.37,2,9.33,9.33,0,0,1,.2,1.5c.07,1.3.06,2.6,0,3.85a3.74,3.74,0,0,1-1.62.85.61.61,0,0,1-.85-.63c0-.8,0-1.6,0-2.4,0-.41,0-.83-.05-1.21a13.32,13.32,0,0,0-4.34,0,1.23,1.23,0,0,0-.11.34V559A1.51,1.51,0,0,0,215.68,559.37Z" transform="translate(-32.86 -173.56)"/><path class="a" d="M536.54,549.89c-.62.26-1.11.5-1.62.68a.6.6,0,0,1-.82-.54c0-.38,0-.76,0-1.14,0-.84,0-1.67,0-2.49a11.75,11.75,0,0,0-4.36-.09,21.72,21.72,0,0,0-.08,3.23c0,1.1,0,2.2,0,3.29V556c0,1.09,0,2.18,0,3.25a13.49,13.49,0,0,0,4.37,0c0-.3.07-.63.08-.95,0-.93,0-1.86,0-2.79a3.06,3.06,0,0,1,.09-.74.53.53,0,0,1,.71-.35c.54.24,1.06.52,1.52.75a1.2,1.2,0,0,1,.13.31c0,1.73,0,3.46,0,5.19a3.75,3.75,0,0,1-.22,1,2,2,0,0,1-2,1.54c-1.6,0-3.21,0-4.81,0a2,2,0,0,1-1.93-1.37,6.65,6.65,0,0,1-.32-1.47c-.06-.63-.08-1.27-.08-1.9V547.12c0-.64,0-1.27.08-1.9a5.8,5.8,0,0,1,.25-1.24,2,2,0,0,1,2-1.58c1.61,0,3.21,0,4.82,0a2,2,0,0,1,2,1.59,3.25,3.25,0,0,1,.17.61A33,33,0,0,1,536.54,549.89Z" transform="translate(-32.86 -173.56)"/><path class="a" d="M95.37,546.21v4.24a6.09,6.09,0,0,0,1.89.13c.59,0,1.18,0,1.8,0a3.07,3.07,0,0,1,.25.74c0,.68,0,1.36,0,2s-.21.83-.84.87-1.19,0-1.78,0l-1.21.05a22.18,22.18,0,0,0,0,5,7.08,7.08,0,0,0,.83.08h4.18c.29,0,.59,0,.88,0a.51.51,0,0,1,.52.46c0,.93,0,1.85,0,2.78a.53.53,0,0,1-.49.5,3.33,3.33,0,0,1-.63,0H93.91a4.35,4.35,0,0,1-.51,0,.58.58,0,0,1-.56-.57,8.82,8.82,0,0,1,0-.89V543.92c0-.42,0-.83,0-1.3a4.34,4.34,0,0,1,.88-.22h7.1l.38,0a.58.58,0,0,1,.59.55c0,.88,0,1.77,0,2.65a.55.55,0,0,1-.51.49,8.65,8.65,0,0,1-1,0H96.73Z" transform="translate(-32.86 -173.56)"/><path class="a" d="M110.74,550.69c.07.14.17.25.17.37,0,.84.06,1.68,0,2.52a.62.62,0,0,1-.64.65c-.38,0-.76,0-1.14,0l-1.77,0a1.17,1.17,0,0,0-.29.08,9.77,9.77,0,0,0-.12,2.48c0,.8,0,1.6,0,2.46a6.27,6.27,0,0,0,.89.12h4.18c.42,0,.84,0,1.24,0a1.79,1.79,0,0,1,.24.53c0,.84,0,1.68,0,2.53,0,.47-.25.67-.73.7-.29,0-.59,0-.88,0h-6.46c-.89,0-1-.14-1-1,0-.59,0-1.18,0-1.77V544.09c0-.46,0-.92,0-1.42a3,3,0,0,1,.74-.26h7.47a2.54,2.54,0,0,1,.62.15,2.47,2.47,0,0,1,.18.61c0,.72,0,1.44,0,2.15s-.22.77-.76.82a8.62,8.62,0,0,1-.88,0h-4.68a5.18,5.18,0,0,0-.18,2.19,10.5,10.5,0,0,0,.06,2.16C108.32,550.71,109.55,550.43,110.74,550.69Z" transform="translate(-32.86 -173.56)"/><path class="a" d="M43.07,542.47a2.25,2.25,0,0,1,.22.54c0,.81,0,1.61,0,2.41,0,.47-.23.67-.72.72a8.62,8.62,0,0,1-.88,0H38c-.33,0-.67,0-1.07.05a3.87,3.87,0,0,0-.14.71c0,1.17,0,2.35,0,3.59,1.28.17,2.5,0,3.73.13a3.91,3.91,0,0,1,.22.76c0,.63,0,1.27,0,1.9s-.21.93-1,1-1.35,0-2,0c-.25,0-.5,0-.74.06a17,17,0,0,0,0,5.08l1,0h4.18a6.35,6.35,0,0,1,.76,0,.5.5,0,0,1,.49.49c0,.89,0,1.77,0,2.66,0,.38-.26.57-.67.61-.21,0-.43,0-.64,0H35c-.44,0-.62-.21-.66-.63s0-.59,0-.88V543.87c0-1.46,0-1.47,1.49-1.48h6.08C42.26,542.4,42.67,542.45,43.07,542.47Z" transform="translate(-32.86 -173.56)"/><path class="a" d="M254,554.29c-.08,1.77,0,3.37,0,5a4.84,4.84,0,0,0,.76.13H259c.42,0,.83,0,1.24,0a1.76,1.76,0,0,1,.24.52c0,.85,0,1.69,0,2.53,0,.48-.25.68-.72.71s-.76,0-1.14,0h-6.08c-1.06,0-1.15-.1-1.15-1.17q0-9.32,0-18.62c0-.25,0-.5.06-.8a2.4,2.4,0,0,1,.69-.25h7.47a3,3,0,0,1,.63.14,3.28,3.28,0,0,1,.18.62c0,.72,0,1.43,0,2.15,0,.57-.22.77-.76.82a8.62,8.62,0,0,1-.88,0h-4.68a5,5,0,0,0-.18,2.18,10.46,10.46,0,0,0,.06,2.16c1.26.21,2.49-.07,3.67.19.08.14.18.25.18.36,0,.85.06,1.69,0,2.53a.62.62,0,0,1-.64.65c-.38,0-.76,0-1.14,0Z" transform="translate(-32.86 -173.56)"/><path class="a" d="M485.6,542.62a2.78,2.78,0,0,1,.62-.2c2.53,0,5.07,0,7.6,0a2.86,2.86,0,0,1,.61.15,2.38,2.38,0,0,1,.17.63c0,.76,0,1.52,0,2.28a.63.63,0,0,1-.64.65,6.55,6.55,0,0,1-.89,0h-3.54c-.42,0-.84,0-1.24,0a14,14,0,0,0-.13,4.27,5.4,5.4,0,0,0,.82.11c.92,0,1.85,0,2.82,0a2.75,2.75,0,0,1,.26.74c0,.72,0,1.44,0,2.15,0,.55-.23.74-.8.78s-1.1,0-1.64,0l-1.36,0a20.88,20.88,0,0,0-.09,5,7.07,7.07,0,0,0,.82.1h4.18a2.58,2.58,0,0,1,1.3.15,1.87,1.87,0,0,1,.18.55c0,.76,0,1.52,0,2.28s-.22.78-.87.82h-7.1c-1,0-1.11-.11-1.13-1.19v-18C485.57,543.62,485.59,543.16,485.6,542.62Z" transform="translate(-32.86 -173.56)"/><path class="a" d="M280.4,554.29c-.09,1.78,0,3.37,0,5a5,5,0,0,0,.77.12h4.18c.29,0,.59,0,.88,0,.49,0,.71.21.73.69,0,.8,0,1.61,0,2.41,0,.47-.23.64-.73.68H278.6c-.6,0-.76-.2-.81-.75,0-.21,0-.43,0-.64,0-6,0-12,0-18,0-1.44,0-1.49,1.49-1.5h6.45c1,0,1.15.19,1.16,1.21,0,.64,0,1.27,0,1.9a.59.59,0,0,1-.55.6,5.21,5.21,0,0,1-.88.06h-3.67c-.42,0-.84,0-1.23,0a13.32,13.32,0,0,0-.11,4.27,3.71,3.71,0,0,0,.68.11c.8,0,1.61,0,2.41,0,.56,0,.8.22.82.75,0,.75,0,1.51,0,2.27a.59.59,0,0,1-.55.6,10.55,10.55,0,0,1-1.13.06Z" transform="translate(-32.86 -173.56)"/><path class="a" d="M548.34,542.47a2.35,2.35,0,0,1,.22.54c0,.8,0,1.6,0,2.4,0,.48-.23.68-.71.73a8.62,8.62,0,0,1-.88,0h-3.8c-.33,0-.66.05-1,.07a15.92,15.92,0,0,0,0,4.26c1.18.22,2.41-.06,3.63.17a2.21,2.21,0,0,1,.21.59c0,.72,0,1.44,0,2.16s-.23.79-.87.83c-.47,0-.93,0-1.4,0h-1.53a7.17,7.17,0,0,0-.17,2.55,17.1,17.1,0,0,0,0,2.57c.4,0,.73.05,1,.05h4.18a6.35,6.35,0,0,1,.76,0,.5.5,0,0,1,.5.48c0,.89,0,1.78,0,2.66,0,.38-.26.57-.67.62h-7.6c-.59,0-.76-.2-.8-.75,0-.26,0-.51,0-.76V543.88c0-1.47,0-1.48,1.48-1.49h6.08C547.52,542.39,547.93,542.45,548.34,542.47Z" transform="translate(-32.86 -173.56)"/><path class="a" d="M177.07,555.57c0,.6,0,1,0,1.43,0,1.57,0,3.13,0,4.69,0,.33,0,.67,0,1a.54.54,0,0,1-.48.52c-1.77.09-2,.2-2-1.58,0-5.86,0-11.73,0-17.59a2.36,2.36,0,0,1,.27-1.55,8,8,0,0,1,.93-.1c1.9,0,3.8,0,5.7,0h.38a1.91,1.91,0,0,1,1.87,1.44A8,8,0,0,1,184,546c.05,2,0,4,0,6.07a7.09,7.09,0,0,1-.33,2,1.9,1.9,0,0,1-2,1.52c-1.06,0-2.11,0-3.17,0Zm4.17-3.74c.47-1.41.18-2.8.25-4.16a2.26,2.26,0,0,0-.36-1.64H177.9c-.24,0-.48,0-.71.06a22.51,22.51,0,0,0,0,5.74C178.51,551.86,179.85,551.85,181.24,551.83Z" transform="translate(-32.86 -173.56)"/><path class="a" d="M354.85,555.57c0,.58,0,1,0,1.41,0,1.61,0,3.21,0,4.81a6.55,6.55,0,0,1,0,.89.61.61,0,0,1-.59.55c-.13,0-.26,0-.38,0-1.51,0-1.57,0-1.57-1.52V543.88c0-1.43.06-1.48,1.5-1.49h5.82a1.93,1.93,0,0,1,1.8,1.37,4.45,4.45,0,0,1,.31,1.48q0,3.72,0,7.46a4.52,4.52,0,0,1-.28,1.35,2,2,0,0,1-2,1.47h-3Zm0-9.5c0,1.94-.06,3.74.05,5.54,0,.06.11.12.16.18a11,11,0,0,0,4-.15,1.5,1.5,0,0,0,.11-.34c0-1.56,0-3.11,0-4.66a1.91,1.91,0,0,0-.24-.61h-3C355.55,546,355.26,546.05,354.81,546.07Z" transform="translate(-32.86 -173.56)"/><path class="a" d="M417.46,542.62c.07.24.19.56.26.88l2.49,10.7,1.65,7.14a7.15,7.15,0,0,1,.22,1.12,2.9,2.9,0,0,1-.19.76l-1.42,0c-.76,0-.88-.09-1.05-.81-.26-1.11-.49-2.22-.74-3.33,0-.16-.08-.33-.12-.53a5.39,5.39,0,0,0-2.22-.17c-.76,0-1.52,0-2.34,0-.13.49-.27.93-.36,1.37-.22.94-.39,1.89-.61,2.84-.11.47-.31.6-.81.63-.21,0-.42,0-.63,0-.95,0-1.2-.26-1-1.24.51-2.35,1.06-4.69,1.59-7q1.21-5.36,2.44-10.72s0-.08,0-.12c.4-1.85.67-2,2.59-1.63A1.46,1.46,0,0,1,417.46,542.62Zm-1.14,5.74a11.75,11.75,0,0,0-.86,3.17,12.57,12.57,0,0,0-.56,3.13,10.81,10.81,0,0,0,2.78-.09C417.23,552.53,416.79,550.52,416.32,548.36Z" transform="translate(-32.86 -173.56)"/><path class="a" d="M403.34,559.45H408c1.13,0,1.25.12,1.28,1.2,0,.63,0,1.27,0,1.9,0,.47-.25.66-.73.69-.3,0-.59,0-.89,0h-6.95c-.63,0-.81-.21-.86-.85a4.3,4.3,0,0,1,.34-2c1.08-2.79,2.14-5.58,3.21-8.37q.9-2.35,1.82-4.72c.11-.3.22-.62.37-1a3.82,3.82,0,0,0-.77-.15c-1,0-2,0-3,0a5.14,5.14,0,0,1-.88-.06.55.55,0,0,1-.5-.49,9,9,0,0,1,.11-3.06,6.68,6.68,0,0,1,1-.15c2.2,0,4.39,0,6.58,0a4.48,4.48,0,0,1,.63.06.59.59,0,0,1,.51.5,3,3,0,0,1-.2,1.85c-.54,1.37-1.08,2.74-1.61,4.11l-3.69,9.54C403.57,558.72,403.49,559,403.34,559.45Z" transform="translate(-32.86 -173.56)"/><path class="a" d="M510.59,542.47c1.1,4.55,2,9,3,13.39.34.07.33-.15.36-.29l2.52-12a2.79,2.79,0,0,1,.19-.73.73.73,0,0,1,.44-.39,2.86,2.86,0,0,1,1.81.11,1.57,1.57,0,0,1,.05,1.27q-1.8,8.34-3.62,16.68c-.15.7-.28,1.4-.45,2.1-.12.47-.31.59-.82.63-1.3.08-1.4,0-1.7-1.27l-4.14-18.24a2,2,0,0,1-.05-.24c-.15-.83.05-1.08.91-1.1C509.54,542.39,510,542.44,510.59,542.47Z" transform="translate(-32.86 -173.56)"/><path class="a" d="M304.89,546.16h-2.32a3.14,3.14,0,0,1-.87-.09c-.17-.05-.41-.25-.42-.4a8.6,8.6,0,0,1,.09-3.19c.47,0,.89-.09,1.3-.09h7.1c1.39,0,1.44.06,1.45,1.4,0,.42,0,.84,0,1.27,0,.93-.15,1.06-1.13,1.09-.54,0-1.09,0-1.64,0a7.45,7.45,0,0,0-.84.09,2.81,2.81,0,0,0-.14,1.42q0,6.9,0,13.8c0,.34,0,.68,0,1,0,.56-.21.72-.8.76h-.13c-1.36,0-1.6.07-1.59-1.51,0-4.69,0-9.37,0-14.06C304.93,547.23,304.91,546.77,304.89,546.16Z" transform="translate(-32.86 -173.56)"/><path class="a" d="M424.72,546.32a5.27,5.27,0,0,0-1.76-.16c-.42,0-.85,0-1.26,0s-.68-.25-.69-.74c0-.76,0-1.52,0-2.28a.6.6,0,0,1,.6-.68,4.44,4.44,0,0,1,.63,0h7.6a6.69,6.69,0,0,1,.94.12,4.4,4.4,0,0,1,.23,2.19c0,1.36-.08,1.43-1.42,1.45h-2.08a2.23,2.23,0,0,0-.23,1.44c0,4.65,0,9.29,0,13.93a10.86,10.86,0,0,1,0,1.14.57.57,0,0,1-.58.55,9.2,9.2,0,0,1-1.39,0,.51.51,0,0,1-.48-.51c0-.38,0-.76,0-1.14,0-4.6,0-9.2,0-13.8C424.75,547.3,424.73,546.84,424.72,546.32Z" transform="translate(-32.86 -173.56)"/><path class="a" d="M366,546.3c-1.14-.36-2.36.1-3.45-.31a9.12,9.12,0,0,1,0-3.38,2.09,2.09,0,0,1,.67-.2c2.78,0,5.56,0,8.34,0a4,4,0,0,1,.66.13,11.29,11.29,0,0,1,.09,3.38c-1.16.49-2.33.05-3.44.33-.32.4-.19.89-.19,1.33,0,4.64,0,9.27,0,13.91a10.86,10.86,0,0,1,0,1.14.63.63,0,0,1-.68.61,10.6,10.6,0,0,1-1.26,0,.53.53,0,0,1-.5-.49,10.86,10.86,0,0,1,0-1.14c0-4.63,0-9.27,0-13.91A3.43,3.43,0,0,0,366,546.3Z" transform="translate(-32.86 -173.56)"/><path class="a" d="M432.61,552.74V544c0-.3,0-.59,0-.89,0-.5.2-.67.68-.73h.13c1.84-.07,1.74.14,1.74,1.61,0,5.9,0,11.79,0,17.69,0,1.6-.08,1.57-1.66,1.55a1.58,1.58,0,0,1-.38,0,.55.55,0,0,1-.49-.5,8.44,8.44,0,0,1,0-1Z" transform="translate(-32.86 -173.56)"/><path class="a" d="M73,552.74V544c0-.34,0-.67,0-1a.58.58,0,0,1,.57-.57,4.44,4.44,0,0,1,.63,0c1.17,0,1.3.11,1.3,1.29q0,9.17,0,18.34a4.1,4.1,0,0,1,0,.5c0,.48-.24.7-.71.72a10.6,10.6,0,0,1-1.26,0,.53.53,0,0,1-.5-.5,8.36,8.36,0,0,1,0-1Z" transform="translate(-32.86 -173.56)"/><path class="a" d="M131.15,552.88c0,3,0,6,0,9,0,1.37-.07,1.42-1.43,1.4a4.26,4.26,0,0,1-.5,0,.63.63,0,0,1-.63-.66c0-.25,0-.51,0-.76,0-6,0-12,0-17.93,0-1.37,0-1.53,1.62-1.48a1,1,0,0,1,.49.08c.17.1.37.26.4.43a5.32,5.32,0,0,1,.07,1.13C131.16,547,131.15,549.93,131.15,552.88Z" transform="translate(-32.86 -173.56)"/><path class="a" d="M521.08,552.87c0-3,0-6,0-9,0-1.36.12-1.53,1.65-1.48a1.1,1.1,0,0,1,.25,0,.65.65,0,0,1,.65.64,8.63,8.63,0,0,1,0,.88v17.85c0,1.44-.07,1.5-1.5,1.46h-.25c-.57,0-.78-.23-.82-.76,0-.33,0-.67,0-1Z" transform="translate(-32.86 -173.56)"/><path class="a" d="M376.6,552.85v9.09c0,1.22-.1,1.31-1.28,1.31s-1.3-.06-1.3-1.28V543.66c0-1.18.13-1.28,1.32-1.27h.12c.94,0,1.12.2,1.13,1.11,0,1.6,0,3.2,0,4.8Z" transform="translate(-32.86 -173.56)"/><path class="a" d="M394.85,552.78c0-3,0-6.07,0-9.11,0-1.19.12-1.29,1.29-1.28a4.35,4.35,0,0,1,.51,0c.48.06.67.25.7.73,0,.25,0,.5,0,.75v17.83a8.72,8.72,0,0,1,0,.89.63.63,0,0,1-.66.63c-1.84.06-1.85.08-1.84-1.61C394.86,558.68,394.85,555.73,394.85,552.78Z" transform="translate(-32.86 -173.56)"/><path class="a" d="M162.41,563a1.76,1.76,0,0,1-.69-1.66c0-.76,0-1.52,0-2.28a1,1,0,0,1,1.11-1.1c1.27-.06,1.81,0,1.75,1.57,0,.17,0,.34,0,.51a15.56,15.56,0,0,1-1,6.19,1,1,0,0,1-1.55.74.65.65,0,0,1-.33-.47,4.26,4.26,0,0,1,.11-1C162,564.68,162.22,563.87,162.41,563Z" transform="translate(-32.86 -173.56)"/><path class="a" d="M305.74,424.81c-.19-1.15-.18-12.14,0-13.25.18,0,.38-.05.58-.06,4.29-.14,30.15-.05,31.25.1a108.38,108.38,0,0,1,.16,12.24c0,.32-.07.65-.1,1C336.55,425,307,425,305.74,424.81Z" transform="translate(-32.86 -173.56)"/><path class="a" d="M382.33,424.8c-.15-1-.19-11.42-.05-13.16a4.54,4.54,0,0,1,.68-.14c.33,0,.67,0,1,0h30.18a3.45,3.45,0,0,1,.15.65q0,6,0,12a4.3,4.3,0,0,1-.1.65,6.07,6.07,0,0,1-.66.09C410,425,383.48,425,382.33,424.8Z" transform="translate(-32.86 -173.56)"/><path class="a" d="M344,424.83c0-4.48,0-8.82,0-13.22a5.6,5.6,0,0,1,.8-.11h29.63l1.48,0A107,107,0,0,1,376,424a6.9,6.9,0,0,1-.12.83c-1.31.18-24.81.25-31.08.11C344.58,424.9,344.34,424.87,344,424.83Z" transform="translate(-32.86 -173.56)"/><path class="a" d="M267.42,424.81c0-.34-.08-.62-.09-.91-.12-5.21-.06-11.11.11-12.25a.87.87,0,0,0,.1-.08.28.28,0,0,1,.12,0l31.13,0a4.35,4.35,0,0,1,.55.07,4.83,4.83,0,0,1,.12.73c0,3.88,0,7.76,0,11.64a7.42,7.42,0,0,1-.1.84C298.37,424.94,269,425,267.42,424.81Z" transform="translate(-32.86 -173.56)"/><path class="a" d="M229.15,424.77c0-.2-.09-.4-.1-.6-.1-2.13,0-11.59.1-12.53a2.36,2.36,0,0,1,1.34-.14h29.23c.42,0,.83,0,1.15.05.11.11.15.13.17.17a.23.23,0,0,1,0,.12q0,5.82,0,11.63c0,.34,0,.68,0,1a1.27,1.27,0,0,1-.1.3c-.2,0-.44.09-.68.12s-.42,0-.63,0h-29.1A3,3,0,0,1,229.15,424.77Z" transform="translate(-32.86 -173.56)"/></svg>